<svg width="56" height="58" viewBox="0 0 56 58" fill="none" xmlns="http://www.w3.org/2000/svg">
<g clip-path="url(#clip0_63_426)">
<path d="M27.9998 54.6501C41.9174 54.6501 53.1998 43.1662 53.1998 29.0001C53.1998 14.834 41.9174 3.3501 27.9998 3.3501C14.0822 3.3501 2.7998 14.834 2.7998 29.0001C2.7998 43.1662 14.0822 54.6501 27.9998 54.6501Z" fill="black" stroke="black" stroke-width="30"/>
<path d="M16.8002 23.2999C19.893 23.2999 22.4002 20.7479 22.4002 17.5999C22.4002 14.4519 19.893 11.8999 16.8002 11.8999C13.7074 11.8999 11.2002 14.4519 11.2002 17.5999C11.2002 20.7479 13.7074 23.2999 16.8002 23.2999Z" fill="white"/>
<path d="M16.8002 34.6998C19.893 34.6998 22.4002 32.1478 22.4002 28.9998C22.4002 25.8518 19.893 23.2998 16.8002 23.2998C13.7074 23.2998 11.2002 25.8518 11.2002 28.9998C11.2002 32.1478 13.7074 34.6998 16.8002 34.6998Z" fill="white"/>
<path d="M16.8002 46.1002C19.893 46.1002 22.4002 43.5482 22.4002 40.4002C22.4002 37.2522 19.893 34.7002 16.8002 34.7002C13.7074 34.7002 11.2002 37.2522 11.2002 40.4002C11.2002 43.5482 13.7074 46.1002 16.8002 46.1002Z" fill="white"/>
<path d="M27.9999 46.1002C31.0927 46.1002 33.5999 43.5482 33.5999 40.4002C33.5999 37.2522 31.0927 34.7002 27.9999 34.7002C24.9071 34.7002 22.3999 37.2522 22.3999 40.4002C22.3999 43.5482 24.9071 46.1002 27.9999 46.1002Z" fill="white"/>
<path d="M39.2001 46.1002C42.2929 46.1002 44.8001 43.5482 44.8001 40.4002C44.8001 37.2522 42.2929 34.7002 39.2001 34.7002C36.1073 34.7002 33.6001 37.2522 33.6001 40.4002C33.6001 43.5482 36.1073 46.1002 39.2001 46.1002Z" fill="white"/>
</g>
<defs>
<clipPath id="clip0_63_426">
<rect width="56" height="57" fill="white" transform="translate(0 0.5)"/>
</clipPath>
</defs>
</svg>
