<svg width="111" height="51" viewBox="0 0 111 51" fill="none" xmlns="http://www.w3.org/2000/svg">
<path d="M0 2.92386C0 2.16445 0.615625 1.54883 1.37504 1.54883H20.6255C21.385 1.54883 22.0006 2.16445 22.0006 2.92386V22.1744C22.0006 22.9338 21.385 23.5494 20.6255 23.5494H1.37504C0.615625 23.5494 0 22.9338 0 22.1744V2.92386Z" fill="#ADDBEB"/>
<path d="M0 29.8746C0 29.1152 0.615625 28.4996 1.37504 28.4996H20.6255C21.385 28.4996 22.0006 29.1152 22.0006 29.8746V49.1251C22.0006 49.8845 21.385 50.5002 20.6255 50.5002H1.37504C0.615625 50.5002 0 49.8845 0 49.1251V29.8746Z" fill="#5CB8D6"/>
<path d="M26.9507 29.8746C26.9507 29.1152 27.5663 28.4996 28.3257 28.4996H47.5762C48.3356 28.4996 48.9513 29.1152 48.9513 29.8746V49.1251C48.9513 49.8845 48.3356 50.5002 47.5762 50.5002H28.3257C27.5663 50.5002 26.9507 49.8845 26.9507 49.1251V29.8746Z" fill="#ADDBEB"/>
<path d="M110.123 6.37137L106.181 14.5732L110.123 23.5494H106.744L102.942 14.5732L106.744 6.37137H110.123ZM99.2108 23.5494V0H102.379V23.5494H99.2108Z" fill="black"/>
<path d="M96.5853 11.7923H93.4524V9.96186C93.4524 9.53945 93.382 9.26958 93.2412 9.15224C93.1004 9.01144 92.8188 8.94104 92.3964 8.94104H90.8827C90.4603 8.94104 90.1787 9.01144 90.0379 9.15224C89.8971 9.26958 89.8267 9.53945 89.8267 9.96186V19.9589C89.8267 20.3813 89.8971 20.6629 90.0379 20.8037C90.1787 20.9211 90.4603 20.9798 90.8827 20.9798H92.3964C92.8188 20.9798 93.1004 20.9211 93.2412 20.8037C93.382 20.6629 93.4524 20.3813 93.4524 19.9589V18.1285H96.5853V20.4517C96.5853 22.5169 95.4823 23.5494 93.2764 23.5494H89.9323C87.7499 23.5494 86.6586 22.5169 86.6586 20.4517V9.50425C86.6586 7.41566 87.7499 6.37137 89.9323 6.37137H93.2764C95.4823 6.37137 96.5853 7.41566 96.5853 9.50425V11.7923Z" fill="black"/>
<path d="M76.9039 6.37137H80.6704C82.8528 6.37137 83.9441 7.41566 83.9441 9.50425V20.4517C83.9441 22.5169 82.8528 23.5494 80.6704 23.5494H76.9039C74.7449 23.5494 73.6654 22.5169 73.6654 20.4517V9.50425C73.6654 7.41566 74.7449 6.37137 76.9039 6.37137ZM80.8112 19.9941V9.92666C80.8112 9.50425 80.7408 9.22264 80.6 9.08184C80.4592 8.94104 80.1776 8.87063 79.7552 8.87063H77.8191C77.3967 8.87063 77.1151 8.94104 76.9743 9.08184C76.857 9.22264 76.7983 9.50425 76.7983 9.92666V19.9941C76.7983 20.4165 76.857 20.6981 76.9743 20.8389C77.1151 20.9798 77.3967 21.0502 77.8191 21.0502H79.7552C80.1776 21.0502 80.4592 20.9798 80.6 20.8389C80.7408 20.6981 80.8112 20.4165 80.8112 19.9941Z" fill="black"/>
<path d="M71.9493 8.94102H69.5908V19.8181C69.5908 20.2405 69.6495 20.5221 69.7668 20.6629C69.9076 20.7803 70.1893 20.8389 70.6117 20.8389H71.9493V23.5494H69.6964C67.4905 23.5494 66.3876 22.5168 66.3876 20.4517V8.94102H64.7683V6.37135H66.3876V3.44968H69.5908V6.37135H71.9493V8.94102Z" fill="black"/>
<path d="M60.3286 20.0997V17.2485C60.3286 16.826 60.2582 16.5562 60.1174 16.4388C59.9766 16.298 59.695 16.2276 59.2726 16.2276H57.4774C55.2949 16.2276 54.2037 15.1951 54.2037 13.1299V9.50425C54.2037 7.41566 55.2949 6.37137 57.4774 6.37137H60.047C62.253 6.37137 63.3559 7.41566 63.3559 9.50425V11.1587H60.2582V9.82106C60.2582 9.39865 60.1878 9.12878 60.047 9.01144C59.9062 8.87064 59.6246 8.80023 59.2022 8.80023H58.3574C57.935 8.80023 57.6534 8.87064 57.5126 9.01144C57.3718 9.12878 57.3014 9.39865 57.3014 9.82106V12.7779C57.3014 13.2003 57.3718 13.482 57.5126 13.6228C57.6534 13.7401 57.935 13.7988 58.3574 13.7988H60.1878C62.3468 13.7988 63.4263 14.8431 63.4263 16.9316V20.4517C63.4263 22.5169 62.3351 23.5494 60.1526 23.5494H57.5478C55.3653 23.5494 54.2741 22.5169 54.2741 20.4517V18.7621H57.3718V20.0997C57.3718 20.5221 57.4422 20.8037 57.583 20.9446C57.7238 21.0619 58.0054 21.1206 58.4278 21.1206H59.2726C59.695 21.1206 59.9766 21.0619 60.1174 20.9446C60.2582 20.8037 60.3286 20.5221 60.3286 20.0997Z" fill="black"/>
<path d="M45.1094 6.37137H48.5591C50.7651 6.37137 51.868 7.41566 51.868 9.50425V15.946H44.9334V20.0293C44.9334 20.4283 45.0038 20.6981 45.1446 20.8389C45.2854 20.9798 45.5671 21.0502 45.9895 21.0502H47.6087C48.0311 21.0502 48.3127 20.9798 48.4535 20.8389C48.5943 20.6981 48.6647 20.4165 48.6647 19.9941V18.5861H51.7624V20.4517C51.7624 22.5169 50.6712 23.5494 48.4887 23.5494H45.1094C42.927 23.5494 41.8358 22.5169 41.8358 20.4517V9.50425C41.8358 7.41566 42.927 6.37137 45.1094 6.37137ZM44.9334 13.6228H48.7351V9.89146C48.7351 9.49252 48.6647 9.22264 48.5239 9.08184C48.4066 8.94104 48.1367 8.87063 47.7143 8.87063H45.9895C45.5671 8.87063 45.2854 8.94104 45.1446 9.08184C45.0038 9.22264 44.9334 9.49252 44.9334 9.89146V13.6228Z" fill="black"/>
<path d="M31.3993 14.6436V23.5494H28.2312V1.51361H35.4474C37.6298 1.51361 38.7211 2.54617 38.7211 4.61129V11.5107C38.7211 13.2942 37.9349 14.315 36.3626 14.5732L39.8475 23.5494H36.433L33.1241 14.6436H31.3993ZM31.3993 4.08328V12.1091H34.497C34.9194 12.1091 35.201 12.0504 35.3418 11.9331C35.4826 11.7923 35.553 11.5107 35.553 11.0883V5.10411C35.553 4.68169 35.4826 4.41182 35.3418 4.29448C35.201 4.15368 34.9194 4.08328 34.497 4.08328H31.3993Z" fill="black"/>
<path d="M110.123 33.3221L106.181 41.5239L110.123 50.5001H106.744L102.942 41.5239L106.744 33.3221H110.123ZM99.2108 50.5001V26.9507H102.379V50.5001H99.2108Z" fill="black"/>
<path d="M96.5853 38.743H93.4524V36.9126C93.4524 36.4902 93.382 36.2203 93.2412 36.103C93.1004 35.9622 92.8188 35.8918 92.3964 35.8918H90.8827C90.4603 35.8918 90.1787 35.9622 90.0379 36.103C89.8971 36.2203 89.8267 36.4902 89.8267 36.9126V46.9096C89.8267 47.3321 89.8971 47.6137 90.0379 47.7545C90.1787 47.8718 90.4603 47.9305 90.8827 47.9305H92.3964C92.8188 47.9305 93.1004 47.8718 93.2412 47.7545C93.382 47.6137 93.4524 47.3321 93.4524 46.9096V45.0792H96.5853V47.4025C96.5853 49.4676 95.4823 50.5001 93.2764 50.5001H89.9323C87.7499 50.5001 86.6586 49.4676 86.6586 47.4025V36.455C86.6586 34.3664 87.7499 33.3221 89.9323 33.3221H93.2764C95.4823 33.3221 96.5853 34.3664 96.5853 36.455V38.743Z" fill="black"/>
<path d="M76.9038 33.3221H80.6703C82.8528 33.3221 83.944 34.3664 83.944 36.455V47.4025C83.944 49.4676 82.8528 50.5001 80.6703 50.5001H76.9038C74.7448 50.5001 73.6653 49.4676 73.6653 47.4025V36.455C73.6653 34.3664 74.7448 33.3221 76.9038 33.3221ZM80.8111 46.9448V36.8774C80.8111 36.455 80.7407 36.1734 80.5999 36.0326C80.4591 35.8918 80.1775 35.8213 79.7551 35.8213H77.8191C77.3966 35.8213 77.115 35.8918 76.9742 36.0326C76.8569 36.1734 76.7982 36.455 76.7982 36.8774V46.9448C76.7982 47.3673 76.8569 47.6489 76.9742 47.7897C77.115 47.9305 77.3966 48.0009 77.8191 48.0009H79.7551C80.1775 48.0009 80.4591 47.9305 80.5999 47.7897C80.7407 47.6489 80.8111 47.3673 80.8111 46.9448Z" fill="black"/>
<path d="M70.753 50.5001H67.5849V26.9507H70.753V50.5001Z" fill="black"/>
<path d="M60.2507 33.2869H61.4828C63.6183 33.2869 64.6861 34.3311 64.6861 36.4197V47.4024C64.6861 49.4675 63.6183 50.5001 61.4828 50.5001H60.2507C59.1009 50.5001 58.3734 50.0425 58.0683 49.1273V50.5001H54.9002V26.9507H58.0683V34.6597C58.3734 33.7445 59.1009 33.2869 60.2507 33.2869ZM61.518 46.9096V36.8773C61.518 36.4784 61.4476 36.2085 61.3068 36.0677C61.166 35.9269 60.8844 35.8565 60.462 35.8565H59.2299C58.8075 35.8565 58.5024 35.9504 58.3147 36.1381C58.1504 36.3259 58.0683 36.6427 58.0683 37.0886V46.6984C58.0683 47.1443 58.1504 47.4611 58.3147 47.6488C58.5024 47.8366 58.8075 47.9304 59.2299 47.9304H60.462C60.8844 47.9304 61.166 47.8718 61.3068 47.7544C61.4476 47.6136 61.518 47.332 61.518 46.9096Z" fill="black"/>
</svg>
