<svg xmlns="http://www.w3.org/2000/svg" style="display: none;">
  <!-- SVG icon 1 -->
  <symbol id="home" viewBox="0 0 50 50">
   <path d="M29.1667 18.75C28.5764 18.75 28.0819 18.55 27.6833 18.15C27.2847 17.75 27.0847 17.2556 27.0833 16.6667V8.33333C27.0833 7.74306 27.2833 7.24861 27.6833 6.85C28.0833 6.45139 28.5778 6.25139 29.1667 6.25H41.6667C42.2569 6.25 42.7521 6.45 43.1521 6.85C43.5521 7.25 43.7514 7.74444 43.75 8.33333V16.6667C43.75 17.2569 43.55 17.7521 43.15 18.1521C42.75 18.5521 42.2556 18.7514 41.6667 18.75H29.1667ZM8.33333 27.0833C7.74306 27.0833 7.24861 26.8833 6.85 26.4833C6.45139 26.0833 6.25139 25.5889 6.25 25V8.33333C6.25 7.74306 6.45 7.24861 6.85 6.85C7.25 6.45139 7.74444 6.25139 8.33333 6.25H20.8333C21.4236 6.25 21.9187 6.45 22.3188 6.85C22.7188 7.25 22.9181 7.74444 22.9167 8.33333V25C22.9167 25.5903 22.7167 26.0854 22.3167 26.4854C21.9167 26.8854 21.4222 27.0847 20.8333 27.0833H8.33333ZM29.1667 43.75C28.5764 43.75 28.0819 43.55 27.6833 43.15C27.2847 42.75 27.0847 42.2556 27.0833 41.6667V25C27.0833 24.4097 27.2833 23.9153 27.6833 23.5167C28.0833 23.1181 28.5778 22.9181 29.1667 22.9167H41.6667C42.2569 22.9167 42.7521 23.1167 43.1521 23.5167C43.5521 23.9167 43.7514 24.4111 43.75 25V41.6667C43.75 42.2569 43.55 42.7521 43.15 43.1521C42.75 43.5521 42.2556 43.7514 41.6667 43.75H29.1667ZM8.33333 43.75C7.74306 43.75 7.24861 43.55 6.85 43.15C6.45139 42.75 6.25139 42.2556 6.25 41.6667V33.3333C6.25 32.7431 6.45 32.2486 6.85 31.85C7.25 31.4514 7.74444 31.2514 8.33333 31.25H20.8333C21.4236 31.25 21.9187 31.45 22.3188 31.85C22.7188 32.25 22.9181 32.7444 22.9167 33.3333V41.6667C22.9167 42.2569 22.7167 42.7521 22.3167 43.1521C21.9167 43.5521 21.4222 43.7514 20.8333 43.75H8.33333Z" fill="currentColor"/>
  </symbol>
  
  <!-- SVG icon 2 -->
  <symbol id="newsales" viewBox="0 0 50 50">
    <path d="M14.5833 45.8333C13.4375 45.8333 12.4569 45.4257 11.6417 44.6104C10.8264 43.7951 10.418 42.8139 10.4167 41.6667C10.4153 40.5194 10.8236 39.5389 11.6417 38.725C12.4597 37.9111 13.4403 37.5028 14.5833 37.5C15.7264 37.4972 16.7076 37.9056 17.5271 38.725C18.3465 39.5444 18.7542 40.525 18.75 41.6667C18.7458 42.8083 18.3382 43.7896 17.5271 44.6104C16.716 45.4313 15.7347 45.8389 14.5833 45.8333ZM35.4167 45.8333C34.2708 45.8333 33.2903 45.4257 32.475 44.6104C31.6597 43.7951 31.2514 42.8139 31.25 41.6667C31.2486 40.5194 31.6569 39.5389 32.475 38.725C33.293 37.9111 34.2736 37.5028 35.4167 37.5C36.5597 37.4972 37.541 37.9056 38.3604 38.725C39.1798 39.5444 39.5875 40.525 39.5833 41.6667C39.5792 42.8083 39.1715 43.7896 38.3604 44.6104C37.5493 45.4313 36.568 45.8389 35.4167 45.8333ZM10.8333 8.33334H41.5625C42.3611 8.33334 42.9687 8.68959 43.3854 9.40209C43.8021 10.1146 43.8194 10.8347 43.4375 11.5625L36.0417 24.8958C35.6597 25.5903 35.1479 26.1285 34.5062 26.5104C33.8646 26.8924 33.1611 27.0833 32.3958 27.0833H16.875L14.5833 31.25H37.5C38.0903 31.25 38.5854 31.45 38.9854 31.85C39.3854 32.25 39.5847 32.7444 39.5833 33.3333C39.5819 33.9222 39.3819 34.4174 38.9833 34.8188C38.5847 35.2201 38.0903 35.4194 37.5 35.4167H14.5833C13.0208 35.4167 11.8403 34.7313 11.0417 33.3604C10.243 31.9896 10.2083 30.6264 10.9375 29.2708L13.75 24.1667L6.24999 8.33334H4.16665C3.57638 8.33334 3.08193 8.13334 2.68332 7.73334C2.28471 7.33334 2.08471 6.83889 2.08332 6.25001C2.08193 5.66112 2.28193 5.16667 2.68332 4.76667C3.08471 4.36667 3.57915 4.16667 4.16665 4.16667H7.55207C7.93401 4.16667 8.2986 4.27084 8.64582 4.47917C8.99304 4.68751 9.25346 4.98264 9.42707 5.36459L10.8333 8.33334Z" fill="currentColor"/>
  </symbol>
  
    <!-- SVG icon 3 -->
  <symbol id="restock" viewBox="0 0 50 50">
   <path d="M10.4167 8.33337H39.5834C40.1736 8.33337 40.6688 8.53337 41.0688 8.93337C41.4688 9.33337 41.6681 9.82782 41.6667 10.4167C41.6653 11.0056 41.4653 11.5007 41.0667 11.9021C40.6681 12.3035 40.1736 12.5028 39.5834 12.5H10.4167C9.82641 12.5 9.33196 12.3 8.93335 11.9C8.53474 11.5 8.33474 11.0056 8.33335 10.4167C8.33196 9.82782 8.53197 9.33337 8.93335 8.93337C9.33474 8.53337 9.82919 8.33337 10.4167 8.33337ZM10.4167 41.6667C9.82641 41.6667 9.33196 41.4667 8.93335 41.0667C8.53474 40.6667 8.33474 40.1723 8.33335 39.5834V29.1667H7.96877C7.30905 29.1667 6.77085 28.9146 6.35419 28.4105C5.93752 27.9063 5.79863 27.325 5.93752 26.6667L8.02085 16.25C8.12502 15.7639 8.36808 15.3646 8.75002 15.0521C9.13196 14.7396 9.56599 14.5834 10.0521 14.5834H39.9479C40.434 14.5834 40.8681 14.7396 41.25 15.0521C41.632 15.3646 41.875 15.7639 41.9792 16.25L44.0625 26.6667C44.2014 27.3264 44.0625 27.9077 43.6459 28.4105C43.2292 28.9132 42.691 29.1653 42.0313 29.1667H41.6667V39.5834C41.6667 40.1737 41.4667 40.6688 41.0667 41.0688C40.6667 41.4688 40.1722 41.6681 39.5834 41.6667C38.9945 41.6653 38.5 41.4653 38.1 41.0667C37.7 40.6681 37.5 40.1737 37.5 39.5834V29.1667H29.1667V39.5834C29.1667 40.1737 28.9667 40.6688 28.5667 41.0688C28.1667 41.4688 27.6722 41.6681 27.0834 41.6667H10.4167ZM12.5 37.5H25V29.1667H12.5V37.5Z" fill="currentColor"/>
  </symbol>

  <!-- SVG icon 4 -->
  <symbol id="settings" viewBox="0 0 50 50">
   <path d="M19.2708 45.8333L18.4375 39.1666C17.9861 38.993 17.5611 38.7847 17.1625 38.5416C16.7639 38.2986 16.3729 38.0382 15.9896 37.7604L9.79167 40.3645L4.0625 30.4687L9.42708 26.4062C9.39236 26.1632 9.375 25.9291 9.375 25.7041V24.2979C9.375 24.0715 9.39236 23.8368 9.42708 23.5937L4.0625 19.5312L9.79167 9.63538L15.9896 12.2395C16.3715 11.9618 16.7708 11.7013 17.1875 11.4583C17.6042 11.2152 18.0208 11.0069 18.4375 10.8333L19.2708 4.16663H30.7292L31.5625 10.8333C32.0139 11.0069 32.4396 11.2152 32.8396 11.4583C33.2396 11.7013 33.6299 11.9618 34.0104 12.2395L40.2083 9.63538L45.9375 19.5312L40.5729 23.5937C40.6076 23.8368 40.625 24.0715 40.625 24.2979V25.702C40.625 25.9284 40.5903 26.1632 40.5208 26.4062L45.8854 30.4687L40.1562 40.3645L34.0104 37.7604C33.6285 38.0382 33.2292 38.2986 32.8125 38.5416C32.3958 38.7847 31.9792 38.993 31.5625 39.1666L30.7292 45.8333H19.2708ZM25.1042 32.2916C27.1181 32.2916 28.8368 31.5798 30.2604 30.1562C31.684 28.7326 32.3958 27.0138 32.3958 25C32.3958 22.9861 31.684 21.2673 30.2604 19.8437C28.8368 18.4201 27.1181 17.7083 25.1042 17.7083C23.0556 17.7083 21.3278 18.4201 19.9208 19.8437C18.5139 21.2673 17.8111 22.9861 17.8125 25C17.8139 27.0138 18.5174 28.7326 19.9229 30.1562C21.3285 31.5798 23.0556 32.2916 25.1042 32.2916Z" fill="currentColor"/>
  </symbol>

  <!-- SVG icon 5 -->
  <symbol id="logout" viewBox="0 0 50 50">
   <path fill="currentColor" d="M10.4167 43.75C9.27083 43.75 8.29028 43.3424 7.475 42.5271C6.65972 41.7118 6.25139 40.7306 6.25 39.5833V10.4167C6.25 9.27083 6.65833 8.29028 7.475 7.475C8.29167 6.65972 9.27222 6.25139 10.4167 6.25H22.9167C23.5069 6.25 24.0021 6.45 24.4021 6.85C24.8021 7.25 25.0014 7.74444 25 8.33333C24.9986 8.92222 24.7986 9.41736 24.4 9.81875C24.0014 10.2201 23.5069 10.4194 22.9167 10.4167H10.4167V39.5833H22.9167C23.5069 39.5833 24.0021 39.7833 24.4021 40.1833C24.8021 40.5833 25.0014 41.0778 25 41.6667C24.9986 42.2556 24.7986 42.7507 24.4 43.1521C24.0014 43.5535 23.5069 43.7528 22.9167 43.75H10.4167ZM35.7812 27.0833H20.8333C20.2431 27.0833 19.7486 26.8833 19.35 26.4833C18.9514 26.0833 18.7514 25.5889 18.75 25C18.7486 24.4111 18.9486 23.9167 19.35 23.5167C19.7514 23.1167 20.2458 22.9167 20.8333 22.9167H35.7812L31.875 19.0104C31.4931 18.6285 31.3021 18.1597 31.3021 17.6042C31.3021 17.0486 31.4931 16.5625 31.875 16.1458C32.2569 15.7292 32.7431 15.5118 33.3333 15.4937C33.9236 15.4757 34.4271 15.6757 34.8438 16.0937L42.2917 23.5417C42.7083 23.9583 42.9167 24.4444 42.9167 25C42.9167 25.5556 42.7083 26.0417 42.2917 26.4583L34.8438 33.9062C34.4271 34.3229 33.9326 34.5229 33.3604 34.5062C32.7882 34.4896 32.2931 34.2722 31.875 33.8542C31.4931 33.4375 31.3111 32.9431 31.3292 32.3708C31.3472 31.7986 31.5465 31.3208 31.9271 30.9375L35.7812 27.0833Z" />
  </symbol>
  
  
  <!-- Add more symbols for other icons -->
</svg>
