<svg width="192" height="192" viewBox="0 0 192 192" fill="none" xmlns="http://www.w3.org/2000/svg">
<path fill-rule="evenodd" clip-rule="evenodd" d="M16 96C16 51.816 51.816 16 96 16C140.184 16 176 51.816 176 96C176 140.184 140.184 176 96 176C51.816 176 16 140.184 16 96ZM96 32C79.0261 32 62.7475 38.7428 50.7452 50.7452C38.7428 62.7475 32 79.0261 32 96C32 112.974 38.7428 129.253 50.7452 141.255C62.7475 153.257 79.0261 160 96 160C112.974 160 129.253 153.257 141.255 141.255C153.257 129.253 160 112.974 160 96C160 79.0261 153.257 62.7475 141.255 50.7452C129.253 38.7428 112.974 32 96 32Z" fill="#2985A3"/>
<path fill-rule="evenodd" clip-rule="evenodd" d="M104 56C104 53.8783 103.157 51.8434 101.657 50.3431C100.157 48.8429 98.1217 48 96 48C93.8783 48 91.8434 48.8429 90.3431 50.3431C88.8429 51.8434 88 53.8783 88 56V88H56C53.8783 88 51.8434 88.8429 50.3431 90.3431C48.8429 91.8434 48 93.8783 48 96C48 98.1217 48.8429 100.157 50.3431 101.657C51.8434 103.157 53.8783 104 56 104H88V136C88 138.122 88.8429 140.157 90.3431 141.657C91.8434 143.157 93.8783 144 96 144C98.1217 144 100.157 143.157 101.657 141.657C103.157 140.157 104 138.122 104 136V104H136C138.122 104 140.157 103.157 141.657 101.657C143.157 100.157 144 98.1217 144 96C144 93.8783 143.157 91.8434 141.657 90.3431C140.157 88.8429 138.122 88 136 88H104V56Z" fill="#2985A3"/>
</svg>
