<svg width="64" height="64" viewBox="0 0 64 64" fill="none" xmlns="http://www.w3.org/2000/svg">
<path d="M43.0667 34.6666H13.3334C12.5778 34.6666 11.9449 34.4106 11.4347 33.8986C10.9245 33.3866 10.6685 32.7538 10.6667 32C10.6649 31.2462 10.9209 30.6133 11.4347 30.1013C11.9485 29.5893 12.5814 29.3333 13.3334 29.3333H43.0667L35.4667 21.7333C34.9334 21.2 34.6774 20.5778 34.6987 19.8666C34.72 19.1555 34.976 18.5333 35.4667 18C36 17.4666 36.6338 17.1893 37.368 17.168C38.1023 17.1466 38.7351 17.4018 39.2667 17.9333L51.4667 30.1333C51.7334 30.4 51.9227 30.6889 52.0347 31C52.1467 31.3111 52.2018 31.6444 52.2 32C52.1983 32.3555 52.1431 32.6889 52.0347 33C51.9263 33.3111 51.7369 33.6 51.4667 33.8666L39.2667 46.0666C38.7334 46.6 38.1005 46.856 37.368 46.8346C36.6356 46.8133 36.0018 46.5351 35.4667 46C34.9778 45.4666 34.7218 44.8444 34.6987 44.1333C34.6756 43.4222 34.9316 42.8 35.4667 42.2666L43.0667 34.6666Z" fill="#2985A3"/>
</svg>
