<svg width="50" height="50" viewBox="0 0 50 50" fill="none" xmlns="http://www.w3.org/2000/svg">
<path d="M29.1667 18.75C28.5764 18.75 28.0819 18.55 27.6833 18.15C27.2847 17.75 27.0847 17.2556 27.0833 16.6667V8.33333C27.0833 7.74306 27.2833 7.24861 27.6833 6.85C28.0833 6.45139 28.5778 6.25139 29.1667 6.25H41.6667C42.2569 6.25 42.7521 6.45 43.1521 6.85C43.5521 7.25 43.7514 7.74444 43.75 8.33333V16.6667C43.75 17.2569 43.55 17.7521 43.15 18.1521C42.75 18.5521 42.2556 18.7514 41.6667 18.75H29.1667ZM8.33333 27.0833C7.74306 27.0833 7.24861 26.8833 6.85 26.4833C6.45139 26.0833 6.25139 25.5889 6.25 25V8.33333C6.25 7.74306 6.45 7.24861 6.85 6.85C7.25 6.45139 7.74444 6.25139 8.33333 6.25H20.8333C21.4236 6.25 21.9187 6.45 22.3188 6.85C22.7188 7.25 22.9181 7.74444 22.9167 8.33333V25C22.9167 25.5903 22.7167 26.0854 22.3167 26.4854C21.9167 26.8854 21.4222 27.0847 20.8333 27.0833H8.33333ZM29.1667 43.75C28.5764 43.75 28.0819 43.55 27.6833 43.15C27.2847 42.75 27.0847 42.2556 27.0833 41.6667V25C27.0833 24.4097 27.2833 23.9153 27.6833 23.5167C28.0833 23.1181 28.5778 22.9181 29.1667 22.9167H41.6667C42.2569 22.9167 42.7521 23.1167 43.1521 23.5167C43.5521 23.9167 43.7514 24.4111 43.75 25V41.6667C43.75 42.2569 43.55 42.7521 43.15 43.1521C42.75 43.5521 42.2556 43.7514 41.6667 43.75H29.1667ZM8.33333 43.75C7.74306 43.75 7.24861 43.55 6.85 43.15C6.45139 42.75 6.25139 42.2556 6.25 41.6667V33.3333C6.25 32.7431 6.45 32.2486 6.85 31.85C7.25 31.4514 7.74444 31.2514 8.33333 31.25H20.8333C21.4236 31.25 21.9187 31.45 22.3188 31.85C22.7188 32.25 22.9181 32.7444 22.9167 33.3333V41.6667C22.9167 42.2569 22.7167 42.7521 22.3167 43.1521C21.9167 43.5521 21.4222 43.7514 20.8333 43.75H8.33333Z" fill="currentcolor"/>
</svg>
