<svg width="50" height="50" viewBox="0 0 50 50" fill="none" xmlns="http://www.w3.org/2000/svg">
<g clip-path="url(#clip0_47_52)">
<path d="M14.5833 45.8333C13.4375 45.8333 12.4569 45.4257 11.6417 44.6104C10.8264 43.7951 10.418 42.8139 10.4167 41.6667C10.4153 40.5194 10.8236 39.5389 11.6417 38.725C12.4597 37.9111 13.4403 37.5028 14.5833 37.5C15.7264 37.4972 16.7076 37.9056 17.5271 38.725C18.3465 39.5444 18.7542 40.525 18.75 41.6667C18.7458 42.8083 18.3382 43.7896 17.5271 44.6104C16.716 45.4313 15.7347 45.8389 14.5833 45.8333ZM35.4167 45.8333C34.2708 45.8333 33.2903 45.4257 32.475 44.6104C31.6597 43.7951 31.2514 42.8139 31.25 41.6667C31.2486 40.5194 31.6569 39.5389 32.475 38.725C33.293 37.9111 34.2736 37.5028 35.4167 37.5C36.5597 37.4972 37.541 37.9056 38.3604 38.725C39.1798 39.5444 39.5875 40.525 39.5833 41.6667C39.5792 42.8083 39.1715 43.7896 38.3604 44.6104C37.5493 45.4313 36.568 45.8389 35.4167 45.8333ZM10.8333 8.33334H41.5625C42.3611 8.33334 42.9687 8.68959 43.3854 9.40209C43.8021 10.1146 43.8194 10.8347 43.4375 11.5625L36.0417 24.8958C35.6597 25.5903 35.1479 26.1285 34.5062 26.5104C33.8646 26.8924 33.1611 27.0833 32.3958 27.0833H16.875L14.5833 31.25H37.5C38.0903 31.25 38.5854 31.45 38.9854 31.85C39.3854 32.25 39.5847 32.7444 39.5833 33.3333C39.5819 33.9222 39.3819 34.4174 38.9833 34.8188C38.5847 35.2201 38.0903 35.4194 37.5 35.4167H14.5833C13.0208 35.4167 11.8403 34.7313 11.0417 33.3604C10.243 31.9896 10.2083 30.6264 10.9375 29.2708L13.75 24.1667L6.24999 8.33334H4.16665C3.57638 8.33334 3.08193 8.13334 2.68332 7.73334C2.28471 7.33334 2.08471 6.83889 2.08332 6.25001C2.08193 5.66112 2.28193 5.16667 2.68332 4.76667C3.08471 4.36667 3.57915 4.16667 4.16665 4.16667H7.55207C7.93401 4.16667 8.2986 4.27084 8.64582 4.47917C8.99304 4.68751 9.25346 4.98264 9.42707 5.36459L10.8333 8.33334Z" fill="#D6EDF5"/>
</g>
<defs>
<clipPath id="clip0_47_52">
<rect width="50" height="50" fill="white"/>
</clipPath>
</defs>
</svg>
