<svg width="50" height="50" viewBox="0 0 50 50" fill="none" xmlns="http://www.w3.org/2000/svg">
<path d="M10.4167 8.33337H39.5834C40.1736 8.33337 40.6688 8.53337 41.0688 8.93337C41.4688 9.33337 41.6681 9.82782 41.6667 10.4167C41.6653 11.0056 41.4653 11.5007 41.0667 11.9021C40.6681 12.3035 40.1736 12.5028 39.5834 12.5H10.4167C9.82641 12.5 9.33196 12.3 8.93335 11.9C8.53474 11.5 8.33474 11.0056 8.33335 10.4167C8.33196 9.82782 8.53197 9.33337 8.93335 8.93337C9.33474 8.53337 9.82919 8.33337 10.4167 8.33337ZM10.4167 41.6667C9.82641 41.6667 9.33196 41.4667 8.93335 41.0667C8.53474 40.6667 8.33474 40.1723 8.33335 39.5834V29.1667H7.96877C7.30905 29.1667 6.77085 28.9146 6.35419 28.4105C5.93752 27.9063 5.79863 27.325 5.93752 26.6667L8.02085 16.25C8.12502 15.7639 8.36808 15.3646 8.75002 15.0521C9.13196 14.7396 9.56599 14.5834 10.0521 14.5834H39.9479C40.434 14.5834 40.8681 14.7396 41.25 15.0521C41.632 15.3646 41.875 15.7639 41.9792 16.25L44.0625 26.6667C44.2014 27.3264 44.0625 27.9077 43.6459 28.4105C43.2292 28.9132 42.691 29.1653 42.0313 29.1667H41.6667V39.5834C41.6667 40.1737 41.4667 40.6688 41.0667 41.0688C40.6667 41.4688 40.1722 41.6681 39.5834 41.6667C38.9945 41.6653 38.5 41.4653 38.1 41.0667C37.7 40.6681 37.5 40.1737 37.5 39.5834V29.1667H29.1667V39.5834C29.1667 40.1737 28.9667 40.6688 28.5667 41.0688C28.1667 41.4688 27.6722 41.6681 27.0834 41.6667H10.4167ZM12.5 37.5H25V29.1667H12.5V37.5Z" fill="#D6EDF5"/>
</svg>
