<svg width="117" height="117" viewBox="0 0 117 117" fill="none" xmlns="http://www.w3.org/2000/svg">
<path d="M20.1094 102.375C16.7154 102.375 13.4605 101.027 11.0606 98.6269C8.66074 96.227 7.3125 92.9721 7.3125 89.5781V71.2969C7.3125 69.8423 7.89032 68.4474 8.91884 67.4188C9.94736 66.3903 11.3423 65.8125 12.7969 65.8125C14.2514 65.8125 15.6464 66.3903 16.6749 67.4188C17.7034 68.4474 18.2812 69.8423 18.2812 71.2969V89.5781C18.2812 90.5872 19.1003 91.4062 20.1094 91.4062H96.8906C97.3755 91.4062 97.8405 91.2136 98.1833 90.8708C98.5261 90.528 98.7188 90.063 98.7188 89.5781V71.2969C98.7188 69.8423 99.2966 68.4474 100.325 67.4188C101.354 66.3903 102.749 65.8125 104.203 65.8125C105.658 65.8125 107.053 66.3903 108.081 67.4188C109.11 68.4474 109.688 69.8423 109.688 71.2969V89.5781C109.688 92.9721 108.339 96.227 105.939 98.6269C103.54 101.027 100.285 102.375 96.8906 102.375H20.1094Z" fill="#2985A3"/>
<path d="M86.1413 34.515C86.6502 35.024 87.0539 35.6282 87.3294 36.2932C87.6048 36.9581 87.7466 37.6709 87.7466 38.3906C87.7466 39.1104 87.6048 39.8231 87.3294 40.4881C87.0539 41.1531 86.6502 41.7573 86.1413 42.2663C85.6323 42.7752 85.0281 43.1789 84.3631 43.4544C83.6981 43.7298 82.9854 43.8716 82.2656 43.8716C81.5459 43.8716 80.8331 43.7298 80.1682 43.4544C79.5032 43.1789 78.899 42.7752 78.39 42.2663L63.9844 27.8679V69.4688C63.9844 70.9233 63.4066 72.3183 62.378 73.3468C61.3495 74.3753 59.9546 74.9531 58.5 74.9531C57.0455 74.9531 55.6505 74.3753 54.622 73.3468C53.5934 72.3183 53.0156 70.9233 53.0156 69.4688V27.8679L38.61 42.2663C38.1011 42.7752 37.4968 43.1789 36.8319 43.4544C36.1669 43.7298 35.4541 43.8716 34.7344 43.8716C34.0146 43.8716 33.3019 43.7298 32.6369 43.4544C31.9719 43.1789 31.3677 42.7752 30.8588 42.2663C30.3498 41.7573 29.9461 41.1531 29.6706 40.4881C29.3952 39.8231 29.2534 39.1104 29.2534 38.3906C29.2534 37.6709 29.3952 36.9581 29.6706 36.2932C29.9461 35.6282 30.3498 35.024 30.8588 34.515L54.6244 10.7494C55.1331 10.24 55.7372 9.83583 56.4022 9.56009C57.0672 9.28435 57.7801 9.14243 58.5 9.14243C59.2199 9.14243 59.9328 9.28435 60.5978 9.56009C61.2628 9.83583 61.8669 10.24 62.3756 10.7494L86.1413 34.515Z" fill="#2985A3"/>
</svg>
