<svg width="40" height="39" viewBox="0 0 40 39" fill="none" xmlns="http://www.w3.org/2000/svg">
<path d="M11.4319 30.1936L11.4844 27.625C11.4844 26.3321 11.998 25.0921 12.9122 24.1779C13.8264 23.2636 15.0664 22.75 16.3594 22.75H22.8594C24.1523 22.75 25.3923 23.2636 26.3065 24.1779C27.2207 25.0921 27.7344 26.3321 27.7344 27.625V30.5081M24.4844 13C24.4844 14.2929 23.9707 15.5329 23.0565 16.4471C22.1423 17.3614 20.9023 17.875 19.6094 17.875C18.3164 17.875 17.0764 17.3614 16.1622 16.4471C15.248 15.5329 14.7344 14.2929 14.7344 13C14.7344 11.7071 15.248 10.4671 16.1622 9.55285C17.0764 8.63861 18.3164 8.125 19.6094 8.125C20.9023 8.125 22.1423 8.63861 23.0565 9.55285C23.9707 10.4671 24.4844 11.7071 24.4844 13Z" stroke="#E6966A" stroke-width="3"/>
<circle cx="19.8044" cy="17.745" r="15.075" stroke="#E6966A" stroke-width="3"/>
</svg>
